<svg xmlns="http://www.w3.org/2000/svg" viewBox="0 0 296.38 393.62"><defs><style>.cls-1{fill:#ef3340;}.cls-2{fill:#e5bf03;}.cls-3{fill:#00ab84;}.cls-4{fill:#0085ca;}.cls-5{fill:#fff;}</style></defs><title>PageAsset 4</title><g id="Layer_2" data-name="Layer 2"><g id="Layer_1-2" data-name="Layer 1"><path class="cls-1" d="M0,168.93.22,38.82s-.64-3.94,6-5.51S146.64.17,146.64.17a8.82,8.82,0,0,1,3.38,0L292.74,33.9s3.64,1.47,3.64,4.92V355.29a5.64,5.64,0,0,1-4.76,5.36c-4.76,1-140.83,32.71-140.83,32.71a10.21,10.21,0,0,1-4.55,0c-2.38-.57-140-32.52-140-32.52s-6-.39-6-5.36S0,168.93,0,168.93Z"/><path class="cls-2" d="M296.38,355.29V38.82c0-3.45-3.64-4.92-3.64-4.92L181.35,7.57,0,188.89c.06,47.32.2,162.64.2,166.59,0,5,6.05,5.36,6.05,5.36s137.59,32,140,32.52a10.21,10.21,0,0,0,4.55,0s136.07-31.76,140.83-32.71A5.64,5.64,0,0,0,296.38,355.29Z"/><path class="cls-3" d="M296.38,355.29V48.64L.21,344.81c0,6.16,0,10,0,10.67,0,5,6.05,5.36,6.05,5.36s137.59,32,140,32.52a10.21,10.21,0,0,0,4.55,0s136.07-31.76,140.83-32.71A5.64,5.64,0,0,0,296.38,355.29Z"/><path class="cls-4" d="M296.38,355.29V204.74L115,386.1l31.22,7.26a10.21,10.21,0,0,0,4.55,0s136.07-31.76,140.83-32.71A5.64,5.64,0,0,0,296.38,355.29Z"/><path class="cls-5" d="M188.75,228.62c0-8.22-8.61-8.61-8.61-8.61s-55.68.19-63.9.19-8.61,8.61-8.61,8.61V322c0,6.69-6.51,8.61-8.61,8.61a8.73,8.73,0,0,1-3.83-1S72,315.49,67.25,312.81c-4.4-2.68-5-7.88-5-7.88V78s.38-8.61,8.61-8.61H99s8.61.38,8.61,8.61v88.21s.57,8.61,8.61,8.61h63.9s8.61-.39,8.61-8.61V78s.77-8.23,8.61-8.23,28.13.19,28.13.19,8.61.39,8.61,8.61V305s.57,3.82-5,7.65-28.13,17-28.13,17a9,9,0,0,1-3.64.76c-2.1,0-8.61-1.91-8.61-8.61Z"/></g></g></svg>